# xmcd
#
# Track frame offsets:
#	150
#	13639
#	23789
#	39544
#	51184
#	64039
#	77866
#	87435
#	100107
#	109037
#	119097
#	137713
#
# Disc length: 2000
#
# Revision: 1
# Processed by: cddbd v1.5.1PL0 Copyright (c) Steve Scherf et al.
# Submitted via: FreeRIP 2.70 
# Normalized: r0:DSETVAR1,TDELIM( - )
#
DISCID=9d07ce0c
DTITLE=Various Artist - Cross Country
DYEAR=2003
DGENRE=Country
TTITLE0=Jimmy Dean - Big Bad John
TTITLE1=Dave Dudley - Six Days On The Road
TTITLE2=Bill Anderson - We May Never Pass This Way Again
TTITLE3=Bobby Bare - That's How I Got To Memphis
TTITLE4=Billie Jo Spears - He's On The Run Again
TTITLE5=Willie Nelson - Home Is Where You're Happy
TTITLE6=Hank Thompson - Green Light
TTITLE7=Glen Campbell - By The Time I Get To Phoenix
TTITLE8=Pasty Cline - Ain't No Wheels On This Ship
TTITLE9=Cowboy Copas - 1000 Miles Of Ocean
TTITLE10=Red Sovine - Giddy Up Go
TTITLE11=Red Simpson - Roll Truck Roll
EXTD=
EXTT0=
EXTT1=
EXTT2=
EXTT3=
EXTT4=
EXTT5=
EXTT6=
EXTT7=
EXTT8=
EXTT9=
EXTT10=
EXTT11=
PLAYORDER=
